<svg width="24" height="24" viewBox="0 0 24 24" fill="none" xmlns="http://www.w3.org/2000/svg">
<g clip-path="url(#clip0_320_1290)">
<path d="M2.4007 3.29979e-07C1.96075 0.00023101 1.52934 0.121385 1.15359 0.350222C0.777847 0.579059 0.472232 0.906774 0.270143 1.29756C0.0680543 1.68834 -0.0227322 2.12715 0.00770442 2.56604C0.0381411 3.00493 0.18863 3.42701 0.442725 3.78615C0.696821 4.1453 1.04475 4.42769 1.44848 4.60247C1.85222 4.77726 2.29623 4.8377 2.73199 4.7772C3.16775 4.7167 3.57851 4.53759 3.91936 4.25943C4.26021 3.98128 4.51805 3.61478 4.6647 3.2H11.2007V22.4H19.3367C19.5254 22.9338 19.8968 23.3836 20.3851 23.6701C20.8734 23.9566 21.4473 24.0612 22.0053 23.9654C22.5633 23.8697 23.0695 23.5798 23.4344 23.1469C23.7993 22.7141 23.9994 22.1662 23.9994 21.6C23.9994 21.0339 23.7993 20.4859 23.4344 20.0531C23.0695 19.6202 22.5633 19.3303 22.0053 19.2346C21.4473 19.1388 20.8734 19.2434 20.3851 19.5299C19.8968 19.8164 19.5254 20.2662 19.3367 20.8H12.8007V1.6H4.6647C4.49919 1.13188 4.19256 0.726606 3.78708 0.440045C3.3816 0.153485 2.89722 -0.000259968 2.4007 3.29979e-07Z" fill="#E4DFD9"/>
</g>
<defs>
<clipPath id="clip0_320_1290">
<rect width="24" height="24" fill="white"/>
</clipPath>
</defs>
</svg>
