<svg width="52" height="52" viewBox="0 0 52 52" fill="none" xmlns="http://www.w3.org/2000/svg">
<path d="M27.2568 6.76009V6.78176C26.5852 6.78176 25.9135 6.97676 25.3718 7.3451C24.2885 8.10343 24.1585 9.3601 25.1335 10.1618L31.3302 15.1668L12.4152 15.2318H12.3935C10.8335 15.2318 9.31685 16.2501 9.01352 17.5501C8.66685 18.8718 9.75018 19.9768 11.3968 19.9768L20.9952 19.9551L3.81352 33.1501C2.16685 34.3851 1.66852 36.4434 2.68685 37.7434C3.72685 39.0651 5.91518 39.0651 7.58352 37.7434L16.9002 30.0951C16.9002 30.0951 16.7485 31.1351 16.7702 31.7418C16.7702 32.3701 16.9868 33.5834 17.2685 34.5151C17.8968 36.5301 18.9585 38.3718 20.4318 39.9968C21.9485 41.6651 23.8335 43.0084 26.0002 43.9618C28.2318 44.9801 30.7018 45.5001 33.2368 45.5001C35.7502 45.5001 38.2419 44.9584 40.4952 43.9401C42.6619 42.9868 44.5252 41.6218 46.0419 39.9534C47.5152 38.3284 48.5769 36.4651 49.2052 34.4718C49.5085 33.4534 49.7035 32.4351 49.8335 31.4168C49.8335 30.3984 49.8335 29.3801 49.7035 28.3618C49.4219 26.3901 48.7502 24.5268 47.6669 22.8368C46.7135 21.2984 45.5002 19.9334 44.0052 18.7851L29.0768 7.32343C28.5451 6.94781 27.9078 6.75058 27.2568 6.76009ZM33.2368 19.9551C35.7502 19.9551 38.1119 20.7784 39.9968 22.2951C40.9502 23.0751 41.7085 23.9851 42.2502 25.0034C42.8352 26.0001 43.2035 27.1918 43.3335 28.4051C43.4202 29.6184 43.2469 30.8318 42.8352 32.0018C42.4019 33.1718 41.7085 34.2551 40.7769 35.2301C38.8485 37.1801 36.1618 38.3068 33.2368 38.3068C30.3335 38.3068 27.6252 37.2018 25.6968 35.2518C24.7652 34.2984 24.0718 33.1934 23.6385 32.0234C23.2211 30.8732 23.0584 29.646 23.1618 28.4268C23.2702 27.2134 23.6385 26.0651 24.2018 25.0251C24.7652 24.0068 25.5452 23.0968 26.4985 22.3168C28.3618 20.7784 30.7452 19.9551 33.2368 19.9551ZM33.4535 22.9884C31.7635 22.9884 30.2035 23.5951 29.0552 24.5701C27.8852 25.5668 27.0835 26.9534 27.0185 28.5568C26.9318 30.1818 27.5819 31.6984 28.7302 32.8251C29.9002 33.9734 31.5902 34.6668 33.4535 34.6668C35.3168 34.6668 36.9852 33.9734 38.1769 32.8251C39.3252 31.6984 39.9752 30.1818 39.8885 28.5568C39.8018 26.9534 39.0002 25.5668 37.8518 24.5701C36.7035 23.5951 35.1435 22.9884 33.4535 22.9884Z" fill="black"/>
</svg>
