<svg width="24" height="24" viewBox="0 0 24 24" fill="none" xmlns="http://www.w3.org/2000/svg">
<g clip-path="url(#clip0_320_1282)">
<path d="M0.859376 23.1394L4.38691 23.1394L16.6816 8.25612L16.7065 10.7366L19.701 6.86567L19.7195 10.2389L21.2536 6.48415L21.9633 7.29997C22.7308 5.66544 22.9981 3.9912 23.0282 0.941469L23.0281 0.941091C20.9238 0.95581 18.7493 1.48405 17.0895 2.28481L18.2971 2.87075L13.3764 4.91684L16.7822 5.30605L13.4924 7.82567L16.0979 7.5538L0.859376 19.9753L0.859376 23.1394ZM0.859376 16.1674L12.7138 8.23583L0.859376 13.0838L0.859376 16.1674ZM0.859375 10.3858L9.47959 8.0068L0.859375 7.89111L0.859375 10.3858L0.859375 10.3858ZM7.50335 23.1393L11.3922 23.1393L16.0456 11.8024L7.5033 23.1394L7.50335 23.1393ZM14.1263 23.1393L16.8168 23.1393L16.592 13.6915L14.1264 23.1392L14.1263 23.1393ZM17.7456 6.39767C18.0969 4.45761 19.5997 2.57862 21.9291 2.03183C21.6708 3.47323 21.1514 4.51161 20.4413 5.21276C19.7425 5.90286 18.8462 6.29028 17.7456 6.39767Z" fill="#E4DFD9"/>
</g>
<defs>
<clipPath id="clip0_320_1282">
<rect width="24" height="24" fill="white" transform="translate(1.04907e-06 24) rotate(-90)"/>
</clipPath>
</defs>
</svg>
