<svg width="24" height="24" viewBox="0 0 24 24" fill="none" xmlns="http://www.w3.org/2000/svg">
<path d="M9.808 20V15.423C8.81 15.3483 7.832 15.2433 6.874 15.108C5.916 14.9733 4.958 14.7833 4 14.538L4.23 13.538C5.49867 13.858 6.77933 14.0853 8.072 14.22C9.36467 14.3547 10.6727 14.4223 11.996 14.423C13.304 14.423 14.6053 14.3553 15.9 14.22C17.1947 14.0847 18.4847 13.8573 19.77 13.538L20 14.538C19.0387 14.7833 18.075 14.9743 17.109 15.111C16.1423 15.2483 15.17 15.355 14.192 15.431V20H9.808ZM12.003 12.808C11.5243 12.808 11.122 12.6463 10.796 12.323C10.4707 11.9997 10.308 11.599 10.308 11.121C10.308 10.657 10.4697 10.258 10.793 9.924C11.1163 9.59 11.517 9.423 11.995 9.423C12.459 9.423 12.8577 9.58867 13.191 9.92C13.525 10.2507 13.692 10.6483 13.692 11.113C13.692 11.5917 13.5267 11.9937 13.196 12.319C12.8653 12.6443 12.4677 12.8073 12.003 12.808ZM5 10C4.72 10 4.48333 9.90333 4.29 9.71C4.09667 9.51667 4 9.27833 4 8.995C4 8.723 4.09667 8.489 4.29 8.293C4.48333 8.09767 4.722 8 5.006 8C5.27867 8 5.51267 8.09733 5.708 8.292C5.90267 8.486 6 8.722 6 9C6 9.28 5.90267 9.51667 5.708 9.71C5.514 9.90333 5.278 10 5 10ZM19 10C18.72 10 18.4833 9.90333 18.29 9.71C18.0967 9.51667 18 9.27833 18 8.995C18 8.723 18.0967 8.489 18.29 8.293C18.4833 8.09767 18.7217 8 19.005 8C19.2777 8 19.5117 8.09733 19.707 8.292C19.9023 8.486 20 8.722 20 9C20 9.28 19.9027 9.51667 19.708 9.71C19.514 9.90333 19.278 10 19 10ZM7.442 6.346C7.16267 6.346 6.926 6.24933 6.732 6.056C6.53867 5.86267 6.442 5.62433 6.442 5.341C6.442 5.069 6.53867 4.83533 6.732 4.64C6.926 4.444 7.16467 4.346 7.448 4.346C7.72 4.346 7.95367 4.44333 8.149 4.638C8.34433 4.83267 8.442 5.06867 8.442 5.346C8.442 5.626 8.345 5.86267 8.151 6.056C7.95633 6.24933 7.72 6.346 7.442 6.346ZM16.558 6.346C16.278 6.346 16.0413 6.24933 15.848 6.056C15.6547 5.86267 15.558 5.62433 15.558 5.341C15.558 5.069 15.6547 4.83533 15.848 4.64C16.0413 4.444 16.2797 4.346 16.563 4.346C16.835 4.346 17.069 4.44333 17.265 4.638C17.4603 4.83267 17.558 5.06867 17.558 5.346C17.558 5.626 17.4607 5.86267 17.266 6.056C17.0713 6.24933 16.8353 6.346 16.558 6.346ZM12 5C11.72 5 11.4833 4.90333 11.29 4.71C11.0967 4.51667 11 4.27833 11 3.995C11 3.72233 11.0967 3.48833 11.29 3.293C11.4833 3.09767 11.722 3 12.006 3C12.278 3 12.512 3.09733 12.708 3.292C12.9027 3.486 13 3.722 13 4C13 4.28 12.9027 4.51667 12.708 4.71C12.514 4.90333 12.278 5 12 5Z" fill="#E4DFD9"/>
</svg>
