<svg width="24" height="24" viewBox="0 0 24 24" fill="none" xmlns="http://www.w3.org/2000/svg">
<path d="M18.75 8.65C18.3 9.1 17.7833 9.44167 17.2 9.675C16.6167 9.90834 16.0333 10.025 15.45 10.025C14.8667 10.025 14.2917 9.91267 13.725 9.688C13.1583 9.46334 12.65 9.11734 12.2 8.65L10.325 6.775C10.075 6.525 9.79167 6.33767 9.475 6.213C9.15833 6.08834 8.83333 6.02567 8.5 6.025C8.16667 6.02434 7.84167 6.087 7.525 6.213C7.20833 6.339 6.925 6.52634 6.675 6.775L4.8 8.65L3.375 7.225L5.25 5.35C5.7 4.9 6.20833 4.56267 6.775 4.338C7.34167 4.11334 7.91667 4.00067 8.5 4C9.08333 3.99934 9.65433 4.112 10.213 4.338C10.7717 4.564 11.2757 4.90134 11.725 5.35L13.6 7.225C13.8667 7.49167 14.1583 7.68767 14.475 7.813C14.7917 7.93834 15.1167 8.00067 15.45 8C15.7833 7.99934 16.1127 7.937 16.438 7.813C16.7633 7.689 17.059 7.493 17.325 7.225L19.2 5.35L20.625 6.775L18.75 8.65ZM18.75 13.65C18.3 14.1 17.7877 14.4377 17.213 14.663C16.6383 14.8883 16.0587 15.0007 15.474 15C14.8893 14.9993 14.3103 14.887 13.737 14.663C13.1637 14.439 12.6513 14.1013 12.2 13.65L10.325 11.775C10.075 11.525 9.79167 11.3377 9.475 11.213C9.15833 11.0883 8.83333 11.0257 8.5 11.025C8.16667 11.0243 7.84167 11.087 7.525 11.213C7.20833 11.339 6.925 11.5263 6.675 11.775L4.8 13.65L3.375 12.25L5.25 10.35C5.7 9.9 6.20833 9.56267 6.775 9.338C7.34167 9.11334 7.91667 9.00067 8.5 9C9.08333 8.99934 9.65433 9.112 10.213 9.338C10.7717 9.564 11.2757 9.90134 11.725 10.35L13.6 12.225C13.8667 12.4917 14.1583 12.6877 14.475 12.813C14.7917 12.9383 15.1167 13.0007 15.45 13C15.7833 12.9993 16.1127 12.937 16.438 12.813C16.7633 12.689 17.059 12.493 17.325 12.225L19.2 10.35L20.625 11.775L18.75 13.65ZM18.725 18.65C18.275 19.1 17.7667 19.4377 17.2 19.663C16.6333 19.8883 16.0583 20.0007 15.475 20C14.8917 19.9993 14.3127 19.887 13.738 19.663C13.1633 19.439 12.6507 19.1013 12.2 18.65L10.3 16.775C10.05 16.525 9.76667 16.3377 9.45 16.213C9.13333 16.0883 8.80833 16.0257 8.475 16.025C8.14167 16.0243 7.81667 16.087 7.5 16.213C7.18333 16.339 6.9 16.5263 6.65 16.775L4.775 18.65L3.375 17.25L5.25 15.35C5.7 14.9 6.20833 14.5627 6.775 14.338C7.34167 14.1133 7.91667 14.0007 8.5 14C9.08333 13.9993 9.65433 14.112 10.213 14.338C10.7717 14.564 11.2757 14.9013 11.725 15.35L13.6 17.225C13.8667 17.4917 14.1627 17.6877 14.488 17.813C14.8133 17.9383 15.1423 18.0007 15.475 18C15.8077 17.9993 16.1327 17.937 16.45 17.813C16.7673 17.689 17.059 17.493 17.325 17.225L19.2 15.35L20.6 16.775L18.725 18.65Z" fill="#E4DFD9"/>
</svg>
