<svg width="162" height="162" viewBox="0 0 162 162" fill="none" xmlns="http://www.w3.org/2000/svg">
<path d="M63.2272 15.1875C55.8562 15.1875 50.0107 15.1875 45.306 15.5722C40.4865 15.9637 36.4162 16.7872 32.697 18.6772C26.6624 21.7531 21.7569 26.6609 18.684 32.697C16.7872 36.4095 15.9637 40.4865 15.5722 45.306C15.1875 50.0107 15.1875 55.8562 15.1875 63.2272V98.7728C15.1875 106.144 15.1875 111.989 15.5722 116.694C15.9637 121.514 16.7872 125.584 18.6772 129.31C21.7542 135.342 26.662 140.245 32.697 143.316C36.4095 145.213 40.4865 146.036 45.306 146.428C50.0107 146.812 55.8562 146.812 63.2272 146.812H98.7728C106.144 146.812 111.989 146.812 116.694 146.428C121.514 146.036 125.584 145.213 129.31 143.323C135.341 140.248 140.244 135.342 143.316 129.31C145.213 125.584 146.036 121.514 146.428 116.694C146.812 111.989 146.812 106.144 146.812 98.7728V63.2272C146.812 55.8562 146.812 50.0107 146.428 45.306C146.036 40.4865 145.213 36.4162 143.323 32.697C140.249 26.6634 135.343 21.758 129.31 18.684C125.584 16.7872 121.514 15.9637 116.694 15.5722C111.989 15.1875 106.144 15.1875 98.7728 15.1875H63.2272ZM109.688 43.875C109.688 42.5323 110.221 41.2447 111.17 40.2953C112.12 39.3459 113.407 38.8125 114.75 38.8125H118.125C119.468 38.8125 120.755 39.3459 121.705 40.2953C122.654 41.2447 123.188 42.5323 123.188 43.875C123.188 45.2177 122.654 46.5053 121.705 47.4547C120.755 48.4041 119.468 48.9375 118.125 48.9375H114.75C113.407 48.9375 112.12 48.4041 111.17 47.4547C110.221 46.5053 109.688 45.2177 109.688 43.875ZM67.7903 55.539C71.1401 53.7321 74.816 52.6099 78.6039 52.2376C82.3917 51.8654 86.2158 52.2507 89.8533 53.371C93.4908 54.4913 96.869 56.3242 99.7911 58.763C102.713 61.2018 105.121 64.1977 106.874 67.5762C108.626 70.9546 109.689 74.6481 110.001 78.4415C110.312 82.2348 109.865 86.0522 108.687 89.6712C107.508 93.2902 105.621 96.6385 103.136 99.5211C100.65 102.404 97.616 104.763 94.2097 106.461C87.4722 109.82 79.6842 110.396 72.5257 108.065C65.3673 105.734 59.4121 100.682 55.945 93.9991C52.4779 87.3164 51.7767 79.5387 53.9927 72.3437C56.2087 65.1486 61.1642 59.1131 67.7903 55.539Z" fill="#E4DFD9"/>
</svg>
