<svg width="162" height="162" viewBox="0 0 162 162" fill="none" xmlns="http://www.w3.org/2000/svg">
<path d="M46.8477 33.7502C46.8459 37.3306 45.4218 40.7637 42.8888 43.2941C40.3558 45.8246 36.9213 47.2452 33.3409 47.2434C29.7605 47.2416 26.3274 45.8176 23.7969 43.2846C21.2665 40.7516 19.8459 37.3171 19.8477 33.7367C19.8494 30.1562 21.2735 26.7232 23.8065 24.1927C26.3395 21.6622 29.774 20.2416 33.3544 20.2434C36.9348 20.2452 40.3679 21.6692 42.8984 24.2022C45.4288 26.7352 46.8494 30.1697 46.8477 33.7502ZM47.2527 57.2402H20.2527V141.75H47.2527V57.2402ZM89.9127 57.2402H63.0477V141.75H89.6427V97.4027C89.6427 72.6977 121.84 70.4027 121.84 97.4027V141.75H148.503V88.2227C148.503 46.5752 100.848 48.1277 89.6427 68.5802L89.9127 57.2402Z" fill="#E4DFD9"/>
</svg>
