<svg width="24" height="24" viewBox="0 0 24 24" fill="none" xmlns="http://www.w3.org/2000/svg">
<path fill-rule="evenodd" clip-rule="evenodd" d="M8.60409 5.69356H10.8769L14.145 16.6427H12.1709L11.358 13.5239H8.1728L7.34329 16.6428H5.60137L8.60414 6.20786L8.60409 5.69356ZM10.91 11.9147L9.78194 7.28611L8.62067 11.9146L10.91 11.9147ZM17.5294 8.50563H15.7377V16.6428H17.5294V8.50563ZM16.6104 5.34425C16.0299 5.34425 15.5594 5.80938 15.5594 6.38317C15.5594 6.95697 16.0299 7.42214 16.6104 7.42214C17.1908 7.42214 17.6614 6.95701 17.6614 6.38322C17.6614 5.80942 17.1909 5.34425 16.6104 5.34425ZM23.0906 22.9091H1.27246V1.09094H23.0906V22.9091Z" fill="#E4DFD9"/>
</svg>
