<svg width="24" height="24" viewBox="0 0 24 24" fill="none" xmlns="http://www.w3.org/2000/svg">
<path d="M8 8V11H9.5C9.89782 11 10.2794 10.842 10.5607 10.5607C10.842 10.2794 11 9.89782 11 9.5C11 9.10218 10.842 8.72064 10.5607 8.43934C10.2794 8.15804 9.89782 8 9.5 8H8Z" fill="#E4DFD9"/>
<path d="M22 2H2V22H22V2ZM8 13V18H6V6H9.5C9.95963 6 10.4148 6.09053 10.8394 6.26642C11.264 6.44231 11.6499 6.70012 11.9749 7.02513C12.2999 7.35013 12.5577 7.73597 12.7336 8.16061C12.9095 8.58525 13 9.04037 13 9.5C13 9.95963 12.9095 10.4148 12.7336 10.8394C12.5577 11.264 12.2999 11.6499 11.9749 11.9749C11.6499 12.2999 11.264 12.5577 10.8394 12.7336C10.4148 12.9095 9.95963 13 9.5 13H8ZM13.5 12.453C13.5 11.8024 13.7584 11.1785 14.2185 10.7185C14.6785 10.2584 15.3024 10 15.953 10H18V12H15.953C15.8453 11.9999 15.7411 12.0381 15.6591 12.1079C15.5771 12.1776 15.5225 12.2743 15.5053 12.3806C15.4881 12.4869 15.5093 12.5958 15.5652 12.6879C15.621 12.78 15.7078 12.8491 15.81 12.883L16.823 13.22C17.3755 13.4043 17.8444 13.7791 18.1459 14.2775C18.4473 14.7758 18.5616 15.3652 18.4682 15.9401C18.3749 16.515 18.0801 17.0379 17.6365 17.4153C17.1928 17.7927 16.6294 18 16.047 18H13.5V16H16.047C16.1547 16.0001 16.2589 15.9619 16.3409 15.8921C16.4229 15.8224 16.4775 15.7257 16.4947 15.6194C16.5119 15.5131 16.4907 15.4042 16.4348 15.3121C16.379 15.22 16.2922 15.1509 16.19 15.117L15.177 14.78C14.6884 14.6175 14.2634 14.3053 13.9624 13.8876C13.6613 13.4698 13.4996 12.9679 13.5 12.453Z" fill="#E4DFD9"/>
</svg>
