<svg width="32" height="32" viewBox="0 0 32 32" fill="none" xmlns="http://www.w3.org/2000/svg">
<path d="M4 4H28V28H4V4ZM6.66667 6.66667V9.33333H9.33333V6.66667H6.66667ZM12 6.66667V14.6667H20V6.66667H12ZM22.6667 6.66667V9.33333H25.3333V6.66667H22.6667ZM25.3333 12H22.6667V14.6667H25.3333V12ZM25.3333 17.3333H22.6667V20H25.3333V17.3333ZM25.3333 22.6667H22.6667V25.3333H25.3333V22.6667ZM20 25.3333V17.3333H12V25.3333H20ZM9.33333 25.3333V22.6667H6.66667V25.3333H9.33333ZM6.66667 20H9.33333V17.3333H6.66667V20ZM6.66667 14.6667H9.33333V12H6.66667V14.6667Z" fill="#E4DFD9"/>
</svg>
